<svg
  title="23|"
  id="Ebene_1"
  data-name="Ebene 1"
  xmlns="http://www.w3.org/2000/svg"
  viewBox="0 0 49.5 42.12"
>
  <path
    d="M44.25,80.54a12,12,0,0,1,2-3,20.11,20.11,0,0,1,2.79-2.46c1-.77,2.07-1.49,3.14-2.2s2.06-1.41,3.08-2.13A20,20,0,0,0,58,68.49a10.62,10.62,0,0,0,1.92-2.67,7.57,7.57,0,0,0,.72-3.32,5.86,5.86,0,0,0-.6-2.67,6.45,6.45,0,0,0-1.58-2.07,7,7,0,0,0-2.28-1.33A7.89,7.89,0,0,0,53.48,56a8,8,0,0,0-3.45.69,6.83,6.83,0,0,0-2.45,1.9,8.17,8.17,0,0,0-1.46,2.83,12.33,12.33,0,0,0-.48,3.52H44c.16-3.55,1-6.15,2.55-7.82s3.74-2.52,6.64-2.52a12.39,12.39,0,0,1,3.5.49,8.15,8.15,0,0,1,2.87,1.48A7.22,7.22,0,0,1,61.54,59a8,8,0,0,1,.72,3.52,8.53,8.53,0,0,1-1.21,4.54,15.41,15.41,0,0,1-3,3.56,35.28,35.28,0,0,1-4,3c-1.42.93-2.75,1.84-4,2.76a21,21,0,0,0-3.2,2.87,5.79,5.79,0,0,0-1.5,3.31H62.72v1.6H43.32A9.27,9.27,0,0,1,44.25,80.54Z"
    transform="translate(-43.32 -49.92)"
		style="fill:white"
  ></path>
  <path
    d="M68,74.57a9.92,9.92,0,0,0,.48,3.65,7.2,7.2,0,0,0,4.37,4.47,10.09,10.09,0,0,0,3.63.6,10.57,10.57,0,0,0,3.12-.46,8.19,8.19,0,0,0,2.68-1.37,6.76,6.76,0,0,0,1.85-2.25,6.56,6.56,0,0,0,.7-3.08,6.4,6.4,0,0,0-.85-3.44,5.92,5.92,0,0,0-2.23-2.13,9.27,9.27,0,0,0-3.14-1A16.33,16.33,0,0,0,75,69.42V68a15.93,15.93,0,0,0,3.23-.15A8.61,8.61,0,0,0,81.15,67,5.84,5.84,0,0,0,83.28,65a5.5,5.5,0,0,0,.83-3.13,5,5,0,0,0-.7-2.65A5.85,5.85,0,0,0,81.6,57.4a8.36,8.36,0,0,0-2.5-1.07A10.45,10.45,0,0,0,76.43,56a8,8,0,0,0-3.33.63,6.61,6.61,0,0,0-2.39,1.73,7.7,7.7,0,0,0-1.45,2.61,12,12,0,0,0-.59,3.33H67.06a11.31,11.31,0,0,1,.66-3.94,8.52,8.52,0,0,1,1.88-3.06,8.61,8.61,0,0,1,3-2,10,10,0,0,1,3.88-.72,13.63,13.63,0,0,1,3.44.43,8.78,8.78,0,0,1,2.95,1.31,6.87,6.87,0,0,1,2.08,2.27,6.52,6.52,0,0,1,.81,3.33,7.49,7.49,0,0,1-.4,2.45,6.28,6.28,0,0,1-3,3.48,6.57,6.57,0,0,1-2.32.73v.09a7.32,7.32,0,0,1,2.66.8,6.63,6.63,0,0,1,2,1.63,7.31,7.31,0,0,1,1.27,2.27,8.6,8.6,0,0,1,.44,2.77,8.22,8.22,0,0,1-.8,3.75,8,8,0,0,1-2.15,2.68,9.06,9.06,0,0,1-3.16,1.6,13.76,13.76,0,0,1-3.84.53A13.15,13.15,0,0,1,72.11,84a8.73,8.73,0,0,1-3.25-2,7.94,7.94,0,0,1-2-3.16,11.31,11.31,0,0,1-.52-4.32Z"
    transform="translate(-43.32 -49.92)"
		style="fill:white"
  ></path>
  <rect x="49.3" width="1.1" height="42.12" style="fill:white"></rect>
</svg>
