<?xml version="1.0" encoding="utf-8"?>
<!-- Generator: Adobe Illustrator 28.0.0, SVG Export Plug-In . SVG Version: 6.00 Build 0)  -->
<svg version="1.1" id="Yake_white" xmlns="http://www.w3.org/2000/svg" xmlns:xlink="http://www.w3.org/1999/xlink" x="0px" y="0px"
	 viewBox="0 0 1000 1000" style="enable-background:new 0 0 1000 1000;" xml:space="preserve">
<style type="text/css">
	.st0{fill:none;}
	.st1{fill:#FFFFFF;stroke:#000000;stroke-linecap:round;stroke-linejoin:round;stroke-miterlimit:10;}
	.st2{fill:#FFFFFF;}
</style>
<g>
	<rect x="0" class="st0" width="1000" height="1000"/>
</g>
<g>
	<path class="st1" d="M630.4,554.1"/>
	<path class="st1" d="M631.6,557"/>
	<path class="st2" d="M659.8,284.9c-8.3,0.6-16.6,1.4-24.9,2.1c-35.3,3.1-71.7,6.3-107.5,0.9c-23-2.2-41.8-15.4-60.1-28.2
		c-23.2-16.3-47.2-33-79-25.7c9.8-9.9,15.4-23.6,15.7-38.8c0.3-18.3-7.5-35.5-20.7-46c-1.3-1-3-1-4.2,0.1c-1.3,1.1-1.5,2.8-0.7,4.3
		c8.5,14.4,9.3,32.9,1.9,49.5c-7.1,15.9-20.2,26.9-36,30.3c-9-6.2-18.8-11.1-29.1-14.8c-9.4-17.9-6.5-42.4,6.9-58.6c1-1.2,1-3,0-4.2
		c-1-1.3-2.8-1.6-4.2-0.8c-20,11.6-31.4,35-28.3,57.4c-3.1-0.4-6.2-0.7-9.3-0.9c-0.6-0.1-1.1,0.2-1.5,0.7c-0.3,0.5-0.4,1.1-0.1,1.6
		c1.4,3.1,3.1,6.1,5,8.9c-6.5-1.7-13.3-2.2-19.9-1.5c-0.7,0.1-1.2,0.5-1.4,1.2c-0.2,0.6,0,1.3,0.5,1.8c3.3,2.7,6.7,5.1,10.4,7.2
		c-5.7,0.1-11.5,1-16.8,2.8c-0.6,0.2-1.1,0.8-1.1,1.4c-0.1,0.7,0.3,1.3,0.9,1.6c4,2.2,8.2,4,12.4,5.5
		c-22.8,12.6-43.7,28.1-62.2,46.3c-0.3,0.3-0.5,0.7-0.5,1.2c0,17.5,12.3,33.3,29.4,37.6c24.5,4.8,55.8,17.8,70.2,39.9
		c7.4,11.4,9.6,24,6.5,37.6c-0.4,1.5,0.4,3.1,1.9,3.7c1.4,0.7,3.1,0.2,4-1c4.8-6.4,8.1-13.7,9.8-21.5c0.2-0.9,0.9-1.3,1.5-1.3
		c0.3,0,1.1,0,1.6,0.8c3.4,6.8,5.7,15.2,6.9,25.7c0.5,4.4,0.8,8.8,0.9,12.1l0.1,2.8c0.1,1.5,1.1,2.8,2.6,3.1c1.5,0.3,3-0.4,3.6-1.8
		c0.2-0.5,0.5-1,0.7-1.5c1.9-4.1,3.6-8.4,5.2-12.9l-1.6-0.5l0,0l1.7,0.2c0.3-0.5,0.8-0.8,1.4-0.8c0.3,0,0.9,0,1.3,0.7
		c0.3,0.4,0.6,0.8,0.8,1.3c6,9.1,9.7,19.7,12.6,28.8c1,3.3,2,6.6,2.9,9.9c6.1,20.9,12.4,42.5,31.9,55.1c0.1,0.1,0.2,0.1,0.3,0.2
		l4.6,1.7c2,8.9,3,18.1,3,27.2c0,20.9-5.3,41.6-15.3,59.8c-0.3,0.5-0.3,1.1,0,1.6c0.3,0.5,0.8,0.8,1.4,0.8h47.6
		c0.6,0,1.2-0.3,1.4-0.9c8-14.4,13-30.1,14.9-46.5c0.6-5,0.9-10,0.9-14.9c0-0.5,0-1.1,0-1.6c2.8,5.5,6.3,10.7,10.3,15.5
		c0.4,0.4,0.9,0.7,1.5,0.6c0.6-0.1,1-0.4,1.3-0.9c2.1-4.3,3.9-8.7,5.2-13.2c1.8,3.3,3.8,6.5,5.9,9.5c0.3,0.5,0.8,0.7,1.4,0.7
		c0.6,0,1.1-0.3,1.4-0.8c2.2-3.7,4.1-7.5,5.7-11.4c2,4,4.3,7.9,7,11.5c0.3,0.5,0.9,0.7,1.4,0.7c0.6,0,1.1-0.3,1.4-0.8
		c1.1-1.9,2.2-3.9,3.2-5.9c0.2-0.5,0.5-1,0.7-1.5c2,4,4.3,7.9,7,11.7c0.3,0.5,1,0.7,1.4,0.7c0.6,0,1.1-0.3,1.4-0.8
		c2.6-4.3,4.7-8.8,6.5-13.3c1.4,2.5,2.9,4.8,4.5,7c0.3,0.5,0.8,0.7,1.4,0.7c0.6,0,1.1-0.3,1.3-0.8c2.3-3.8,4.2-7.8,5.9-11.9
		c2.3,5,5,9.8,8.3,14.3c0.3,0.5,0.8,0.7,1.4,0.7c0.6,0,1.1-0.3,1.4-0.8c3.2-5.3,5.8-10.9,7.7-16.8c2,4.2,4.5,8.3,7.3,12.2
		c0.3,0.5,1,0.7,1.4,0.7c0.6,0,1.1-0.3,1.4-0.8c2.9-4.9,5.3-10,7.2-15.4c2.2,5.4,4.9,10.6,8.1,15.5c0.3,0.5,0.8,0.8,1.4,0.7
		c0.6,0,1.1-0.3,1.4-0.8c3.2-5,5.9-10.3,8-15.8c1.9,4.1,4.1,8.1,6.6,11.9c0.3,0.5,0.8,0.7,1.4,0.7c0,0,0,0,0,0
		c0.6,0,1.1-0.3,1.4-0.8c2.4-3.8,4.6-7.8,6.4-11.9c2.2,5.5,5,10.9,8.3,15.9c0.3,0.5,0.8,0.7,1.4,0.7c0,0,0,0,0,0
		c0.6,0,1.1-0.3,1.4-0.8c3.7-5.7,6.8-11.9,9-18.4c1.9,3.8,4.2,7.5,6.8,11.1c0.3,0.4,0.9,0.7,1.4,0.7c0.6,0,1.1-0.3,1.4-0.8
		c2.1-3.6,4-7.3,5.5-11c2.3,5.1,5.1,10,8.4,14.5c0.3,0.5,0.9,0.8,1.4,0.7c0.6,0,1.1-0.3,1.3-0.8c2.9-5,5.4-10.3,7.3-15.7
		c2.1,4.4,4.6,8.6,7.5,12.5c0.3,0.5,0.9,0.8,1.4,0.7c0.6,0,1.1-0.3,1.3-0.8c2.2-3.7,4.1-7.6,5.7-11.5c1.6,2.9,3.4,5.7,5.3,8.3
		c0.3,0.4,0.9,0.7,1.4,0.7c0.6,0,1.1-0.3,1.3-0.8c1.7-2.9,3.3-6,4.8-9.2c2.4,5.7,5.5,11,9.1,16c0.3,0.5,0.9,0.8,1.4,0.7
		c0.6,0,1.1-0.3,1.4-0.8c2.1-3.5,3.9-7.3,5.5-11.1c0.3,3.3,0.4,6.6,0.4,10c0,20.9-5.3,41.6-15.3,59.8c-0.3,0.5-0.3,1.1,0,1.6
		c0.3,0.5,0.8,0.8,1.4,0.8H741c0.6,0,1.2-0.3,1.4-0.9c10.3-18.7,15.7-39.9,15.7-61.4c0-6-0.4-11.9-1.2-17.8c4.5,1.7,9.1,3,13.8,4
		c0.5,0.1,1.1-0.1,1.5-0.4c0.4-0.4,0.6-0.9,0.5-1.4c-0.6-4.9-1.7-9.6-3.2-14.3c3.1,1.9,6.1,4.1,8.9,6.4c0.5,0.4,1.1,0.5,1.7,0.2
		c0.6-0.3,1-0.8,1-1.4c0.5-10.6-0.9-21.4-4.2-31.3c3.5,2.5,6.7,5.3,9.7,8.2c0.5,0.5,1.2,0.6,1.8,0.4c0.6-0.2,1-0.8,1-1.5
		c0.2-12.2-2.2-24.3-7.2-35.5c3.2,3.5,6,7.2,8.5,11.2c0.4,0.6,1.2,0.9,1.9,0.7c0.7-0.2,1.2-0.9,1.2-1.6
		C792.6,381.3,756.7,285.9,659.8,284.9z M282.5,274c-4.6,0-8.3-3.7-8.3-8.3c0-4.6,3.7-8.3,8.3-8.3c4.6,0,8.3,3.8,8.3,8.3
		C290.9,270.3,287.1,274,282.5,274z"/>
	<g>
		<path class="st2" d="M438.1,706.9c-0.2-0.7-0.9-1.1-1.6-1.1h-23.4c-0.7,0-1.3,0.4-1.6,1.1l-51.8,150.6c-0.2,0.5-0.1,1.1,0.2,1.5
			c0.3,0.4,0.8,0.7,1.3,0.7h21c0.7,0,1.3-0.4,1.6-1.1l12.9-37.6h55.7l12.8,37.6c0.2,0.7,0.9,1.1,1.6,1.1h21c0.5,0,1-0.3,1.3-0.7
			c0.3-0.4,0.4-1,0.2-1.5L438.1,706.9z M444.6,797.7h-39.8l20-58L444.6,797.7z"/>
		<path class="st2" d="M767.1,728.9c0.9,0,1.7-0.7,1.7-1.7v-19.9c0-0.9-0.7-1.7-1.7-1.7h-80.8c-0.1,0-0.2,0-0.2,0h-13.9
			c-0.9,0-1.7,0.7-1.7,1.7v151c0,0.9,0.7,1.7,1.7,1.7H686c0.1,0,0.2,0,0.2,0h80.8c0.9,0,1.7-0.7,1.7-1.7v-19.9
			c0-0.9-0.7-1.7-1.7-1.7h-73.4v-42.4h73.4c0.9,0,1.7-0.7,1.7-1.7V773c0-0.9-0.7-1.7-1.7-1.7h-73.4v-42.4H767.1z"/>
		<path class="st2" d="M572.4,772.4l61.7-63.9c0.5-0.5,0.6-1.2,0.3-1.8c-0.3-0.6-0.9-1-1.5-1h-27.6c-0.4,0-0.9,0.2-1.2,0.5l-58,60
			v-58.9c0-0.9-0.7-1.7-1.7-1.7h-19.9c-0.9,0-1.7,0.7-1.7,1.7v150.5c0,0.9,0.7,1.7,1.7,1.7h19.9c0.9,0,1.7-0.7,1.7-1.7v-58.3
			l10.1-10.4l54.5,69.7c0.3,0.4,0.8,0.6,1.3,0.6h25.2c0.6,0,1.2-0.4,1.5-0.9c0.3-0.6,0.2-1.2-0.2-1.7L572.4,772.4z"/>
		<path class="st2" d="M360.2,706.6c-0.3-0.5-0.8-0.8-1.4-0.8H336c-0.6,0-1.2,0.3-1.4,0.9l-38.7,69.8l-38.7-69.8
			c-0.3-0.5-0.8-0.9-1.4-0.9h-22.7c-0.6,0-1.1,0.3-1.4,0.8c-0.3,0.5-0.3,1.1,0,1.6l52.8,95.1v55.2c0,0.9,0.7,1.7,1.7,1.7h19.9
			c0.9,0,1.7-0.7,1.7-1.7v-55.2l52.8-95.1C360.5,707.7,360.5,707.1,360.2,706.6z"/>
	</g>
</g>
</svg>
